<?xml version="1.0"?>
<svg xmlns="http://www.w3.org/2000/svg" xmlns:xlink="http://www.w3.org/1999/xlink" version="1.1" id="Capa_1" x="0px" y="0px" viewBox="0 0 512 512" style="enable-background:new 0 0 512 512;" xml:space="preserve" width="512px" height="512px" class=""><g><link xmlns="" type="text/css" id="dark-mode" rel="stylesheet"/><style xmlns="" type="text/css" id="dark-mode-custom-style"/><circle style="fill:#33B08F" cx="256" cy="256" r="256" data-original="#00BB6C" class="" data-old_color="#00BB6C"/><g>
	<path style="fill:#45D4AE" d="M401.138,198.971l-80.474-80.474l-0.005,0.005c-1.534-1.557-3.654-2.495-5.943-2.495h-3.895   l-2.783-2.783h-37.102v22.261l57.375,57.375l3.357,10.278c-8.085,3.375-15.779,7.768-22.937,13.158   c-2.325,1.751-4.565,3.608-6.732,5.544l-60.013-60.013l-89.775-16.695v38.956l16.231,16.231   c-9.451-2.749-19.235-4.174-29.228-4.174c-57.794,0-104.812,47.019-104.812,104.811L50.3,316.856   c3.162,17.729,11.506,33.677,23.414,46.226l-0.04,0.04l146.35,146.35C231.781,511.126,243.788,512,256,512   c128.024,0,234.094-93.977,253-216.708l-88.972-88.972C413.92,203.24,407.61,200.795,401.138,198.971z" data-original="#008F4E" class="" data-old_color="#008F4E"/>
	<circle style="fill:#45D4AE" cx="372.405" cy="300.956" r="81.99" data-original="#008F4E" class="" data-old_color="#008F4E"/>
	<circle style="fill:#45D4AE" cx="139.214" cy="300.956" r="81.99" data-original="#008F4E" class="" data-old_color="#008F4E"/>
</g><path style="fill:#005459;" d="M139.215,391.3c-49.816,0-90.342-40.527-90.342-90.342c0-49.815,40.527-90.342,90.342-90.342  s90.342,40.527,90.342,90.342C229.557,350.772,189.029,391.3,139.215,391.3z M139.215,227.311  c-40.609,0-73.647,33.037-73.647,73.647s33.038,73.647,73.647,73.647s73.647-33.038,73.647-73.647S179.823,227.311,139.215,227.311z  " data-original="#005459" class=""/><path style="fill:#FFFFFF;" d="M45.533,300.958h-11.13c0-57.793,47.019-104.811,104.812-104.811c13.631,0,26.893,2.579,39.42,7.667  l-4.188,10.312c-11.19-4.545-23.044-6.849-35.232-6.849C87.559,207.277,45.533,249.301,45.533,300.958z" data-original="#FFFFFF" class=""/><path style="fill:#005459;" d="M372.401,391.3c-49.816,0-90.343-40.527-90.343-90.342c0-49.815,40.527-90.342,90.343-90.342  c49.815,0,90.342,40.527,90.342,90.342C462.743,350.772,422.216,391.3,372.401,391.3z M372.401,227.311  c-40.609,0-73.647,33.037-73.647,73.647s33.038,73.647,73.647,73.647s73.647-33.038,73.647-73.647S413.01,227.311,372.401,227.311z" data-original="#005459" class=""/><path style="fill:#AEAEB4;" d="M281.672,273.402l-10.651-3.231c6.456-21.288,19.849-40.422,37.71-53.874  c18.469-13.911,40.486-21.264,63.67-21.264c16.748,0,32.772,3.797,47.627,11.286l-5.011,9.939  c-13.286-6.699-27.624-10.095-42.615-10.095C330.331,206.163,293.87,233.185,281.672,273.402z" data-original="#AEAEB4" class=""/><path style="fill:#E2E2E4;" d="M372.401,309.305H139.215c-2.786,0-5.389-1.389-6.938-3.706c-1.549-2.315-1.841-5.251-0.779-7.827  l56.034-135.791c1.201-2.91,3.937-4.898,7.077-5.139c3.14-0.239,6.147,1.304,7.779,3.997l62.509,103.143l-14.278,8.653  l-53.952-89.023l-44.977,108.997h209.202l-52.232-159.907h-24.368v-16.695h30.424c3.612,0,6.814,2.323,7.935,5.755l57.685,176.603  c0.83,2.542,0.393,5.328-1.179,7.493C377.588,308.023,375.075,309.305,372.401,309.305z" data-original="#E2E2E4" class=""/><polygon style="fill:#3299D4" points="241.985,184.088 152.211,184.088 152.211,145.131 241.985,161.827 " data-original="#3299D4" class=""/><g>
	<path style="fill:#C8C6CB;" d="M255.531,340.285c-21.686,0-39.328-17.642-39.328-39.328s17.642-39.328,39.328-39.328   s39.328,17.642,39.328,39.328C294.859,322.642,277.217,340.285,255.531,340.285z M255.531,274.986   c-14.321,0-25.971,11.651-25.971,25.97c0,14.321,11.651,25.971,25.971,25.971c14.32,0,25.97-11.651,25.97-25.971   C281.503,286.637,269.852,274.986,255.531,274.986z" data-original="#C8C6CB" class=""/>
	<path style="fill:#C8C6CB;" d="M322.65,121.763c-1.121-3.433-4.323-5.755-7.935-5.755h-30.424v16.695h24.368l52.232,159.907   H255.808v16.695h116.593c2.674,0,5.187-1.282,6.757-3.447c1.571-2.165,2.009-4.951,1.179-7.493L322.65,121.763z" data-original="#C8C6CB" class=""/>
</g><rect x="270.938" y="113.222" style="fill:#FFDE59" width="37.102" height="22.257" data-original="#FF5F3B" class="active-path" data-old_color="#FF5F3B"/></g> </svg>
