<?xml version="1.0"?>
<svg xmlns="http://www.w3.org/2000/svg" height="512px" viewBox="0 0 256 256" width="512px" class=""><g><link xmlns="" type="text/css" id="dark-mode" rel="stylesheet"/><style xmlns="" type="text/css" id="dark-mode-custom-style"/><path d="m81.2 93.12h-4.17a10.187 10.187 0 0 1 -10.19-10.19v-5a10.194 10.194 0 0 1 10.19-10.19h3.86v18.55c0 1.54.04 3.07.14 4.61.04.74.1 1.48.17 2.22z" fill="#ffb69f" data-original="#FFB69F" class="active-path" style="fill:#FFFFFF" data-old_color="#ffb69f"/><path d="m93.038 201.61a35.083 35.083 0 1 1 42.9 34.2l-7.815 17.01-7.815-17.01a35.089 35.089 0 0 1 -27.27-34.2z" fill="#fc5d3d" data-original="#FC5D3D" class="" style="fill:#E0584A" data-old_color="#fc5d3d"/><path d="m181.618 201.61a35.084 35.084 0 1 1 42.9 34.2l-7.815 17.01-7.815-17.01a35.089 35.089 0 0 1 -27.27-34.2z" fill="#13bf6d" data-original="#13BF6D" class="" style="fill:#33B08F" data-old_color="#13bf6d"/><path d="m4.215 201.61a35.084 35.084 0 1 1 42.9 34.2l-7.815 17.009-7.815-17.01a35.09 35.09 0 0 1 -27.27-34.199z" fill="#13bf6d" data-original="#13BF6D" class="" style="fill:#33B08F" data-old_color="#13bf6d"/><path d="m175.2 90.89c-.04.74-.1 1.47-.17 2.21-.08.93-.19 1.86-.31 2.78-2.08 16.15-9.39 30.45-19.84 40.52l-15.61 15a16.062 16.062 0 0 1 -22.26.01l-15.62-15.01c-11.1-10.68-17.86-25.24-19.87-40.49-.12-.93-.23-1.86-.32-2.79-.07-.74-.13-1.48-.17-2.22l4.01-4.6a11.332 11.332 0 0 0 3.89-8.54v-5.04l4.04-4.04 1.61-1.61a11.385 11.385 0 0 0 3.32-8l-.01-5.07a5.014 5.014 0 0 1 4.89-5.01h50.8a5 5 0 0 1 4.76 5.01v5.04a11.339 11.339 0 0 0 3.33 8.02l5.65 5.65c0 3.33-.18 4.83.95 8.12 1.44 4.2 2.82 5.32 6.93 10.06z" fill="#ffb69f" data-original="#FFB69F" class="active-path" style="fill:#FFFFFF" data-old_color="#ffb69f"/><path d="m189.4 77.92v4.99a10.187 10.187 0 0 1 -10.19 10.19h-4.18c.07-.74.13-1.47.17-2.21.115-1.451.16-3.149.16-4.61v-18.55h3.85a10.187 10.187 0 0 1 10.19 10.19z" fill="#ffb69f" data-original="#FFB69F" class="active-path" style="fill:#FFFFFF" data-old_color="#ffb69f"/><path d="m176.74 3.18c-19.23 11.05-57.93-3.27-72.37 15.37-19.22-.99-22.69 19.01-23.48 38.45v29.29c0 1.54.04 3.07.14 4.61l4.01-4.6a11.332 11.332 0 0 0 3.89-8.54v-5.04l4.04-4.04 1.61-1.61a11.385 11.385 0 0 0 3.32-8l-.01-5.07a5.014 5.014 0 0 1 4.89-5.01h50.8a5 5 0 0 1 4.76 5.01v5.04a11.339 11.339 0 0 0 3.33 8.02l5.65 5.65c0 3.33-.18 4.83.95 8.12 1.44 4.2 2.82 5.32 6.93 10.06.115-1.451.16-3.149.16-4.61v-19.49a15.712 15.712 0 0 1 1.82-7.38c2.88-5.38 12.23-35.64-.44-56.23z" fill="#fc5d3d" data-original="#FC5D3D" class="" style="fill:#E0584A" data-old_color="#fc5d3d"/><path d="m148.565 216.415a2.5 2.5 0 0 1 -.9-3.419 22.723 22.723 0 0 0 1.457-2.978 2.5 2.5 0 1 1 4.64 1.861 27.511 27.511 0 0 1 -1.78 3.638 2.5 2.5 0 0 1 -3.417.898z" fill="#ffcbc2" data-original="#FFCBC2" class=""/><path d="m153.237 204.11a2.5 2.5 0 0 1 -2.5-2.5 22.642 22.642 0 0 0 -22.616-22.616 2.5 2.5 0 0 1 0-5 27.647 27.647 0 0 1 27.616 27.616 2.5 2.5 0 0 1 -2.5 2.5z" fill="#ffcbc2" data-original="#FFCBC2" class=""/><g fill="#76ffba"><path d="m237.145 216.415a2.5 2.5 0 0 1 -.9-3.419 22.723 22.723 0 0 0 1.457-2.978 2.5 2.5 0 1 1 4.64 1.861 27.511 27.511 0 0 1 -1.78 3.638 2.5 2.5 0 0 1 -3.417.898z" data-original="#76FFBA" class=""/><path d="m241.817 204.11a2.5 2.5 0 0 1 -2.5-2.5 22.642 22.642 0 0 0 -22.617-22.616 2.5 2.5 0 0 1 0-5 27.647 27.647 0 0 1 27.616 27.616 2.5 2.5 0 0 1 -2.499 2.5z" data-original="#76FFBA" class=""/><path d="m59.743 216.415a2.5 2.5 0 0 1 -.9-3.419 22.717 22.717 0 0 0 1.456-2.978 2.5 2.5 0 1 1 4.641 1.861 27.635 27.635 0 0 1 -1.78 3.638 2.5 2.5 0 0 1 -3.417.898z" data-original="#76FFBA" class=""/><path d="m64.415 204.11a2.5 2.5 0 0 1 -2.5-2.5 22.642 22.642 0 0 0 -22.615-22.616 2.5 2.5 0 0 1 0-5 27.647 27.647 0 0 1 27.615 27.616 2.5 2.5 0 0 1 -2.5 2.5z" data-original="#76FFBA" class=""/></g><path d="m179.21 95.6a12.7 12.7 0 0 0 12.69-12.69v-4.99a12.7 12.7 0 0 0 -12.69-12.69h-1.256a13.232 13.232 0 0 1 1.436-4.65c1.28-2.42 3.3-8.03 4.8-15.88a2.5 2.5 0 1 0 -4.91-.93c-1.28 6.84-3.32 12.67-4.3 14.46a18.264 18.264 0 0 0 -2.12 8.56v17.547a13.539 13.539 0 0 1 -2.116-3.922 21.156 21.156 0 0 1 -.924-7.705 2.488 2.488 0 0 0 -.73-1.77c-5.43-5.43-8.25-7.289-8.25-11.9v-5.04a7.488 7.488 0 0 0 -7.14-7.51h-31.725a24.14 24.14 0 0 1 -3.946-10.418 2.5 2.5 0 1 0 -4.952.693 30.1 30.1 0 0 0 3.087 9.725h-5.2a117.586 117.586 0 0 1 -3.764-11.49 2.5 2.5 0 0 0 -4.823 1.323c.992 3.615 2.077 7.015 3.234 10.167h-2.891a7.482 7.482 0 0 0 -7.33 7.51l.01 5.07a8.91 8.91 0 0 1 -2.588 6.23c-3.469 3.47-2.18 2.182-5.652 5.648a2.611 2.611 0 0 0 -.73 1.77c0 5.554.04 5.473-.137 6.517a8.809 8.809 0 0 1 -2.9 5.177v.006c0-1.4 0-25.984 0-27.37.688-17.365 3.523-37.2 20.85-36a2.533 2.533 0 0 0 2.11-.97c12.943-16.691 49.005-4.257 69.4-13.59a45.338 45.338 0 0 1 4.8 18.01 2.5 2.5 0 1 0 4.98-.35c-.61-8.59-2.85-16.09-6.66-22.28a2.506 2.506 0 0 0 -3.38-.86c-17.735 10.432-56.3-3.434-72.27 15-20.227 0-24 20.842-24.83 40.89v8.341h-1.362a12.7 12.7 0 0 0 -12.69 12.69v5a12.7 12.7 0 0 0 12.69 12.69h1.94c2.146 17.308 9.872 32.176 20.687 42.582l15.619 15.009a18.5 18.5 0 0 0 25.723-.01l15.613-15c10.834-10.441 18.477-25.153 20.651-42.6zm7.69-17.68v4.99a7.7 7.7 0 0 1 -7.69 7.69h-1.482c.076-1.12.132-2.71.132-4.319v-16.051h1.35a7.7 7.7 0 0 1 7.69 7.69zm-117.559 5.011v-5a7.7 7.7 0 0 1 7.69-7.69h1.359v16.049c0 1.553.043 2.972.125 4.331h-1.484a7.7 7.7 0 0 1 -7.69-7.69zm83.806 51.669-15.611 15a13.513 13.513 0 0 1 -18.794.008l-15.618-15.008c-11.573-11.134-18.315-26.813-19.532-42.831 4.158-4.779 7.838-7.513 7.838-14.009v-4.005c5.453-5.452 5.307-5.242 6.144-6.356a14.085 14.085 0 0 0 2.826-8.334l-.01-5.065a2.5 2.5 0 0 1 2.4-2.51h50.722a2.508 2.508 0 0 1 2.328 2.51v5.04a14.077 14.077 0 0 0 4.062 9.788l4.918 4.918a19.766 19.766 0 0 0 .686 6.578c1.516 5.566 4.174 8.021 7.122 11.419-1.356 17.612-8.833 32.595-19.481 42.857z" data-original="#000000" class=""/><path d="m183.2 31.83a2.5 2.5 0 1 0 2.32 2.66 2.5 2.5 0 0 0 -2.32-2.66z" data-original="#000000" class=""/><path d="m138.776 120.164a2.5 2.5 0 0 0 -3.5.52 8.9 8.9 0 0 1 -14.313 0 2.5 2.5 0 1 0 -4.018 2.976 13.907 13.907 0 0 0 22.348 0 2.5 2.5 0 0 0 -.517-3.496z" data-original="#000000" class=""/><path d="m118.82 74.043a2.5 2.5 0 0 0 .52-3.5 13.366 13.366 0 0 0 -21.48 0 2.5 2.5 0 1 0 4.017 2.976 8.359 8.359 0 0 1 13.446 0 2.5 2.5 0 0 0 3.497.524z" data-original="#000000" class=""/><path d="m136.9 70.54a2.5 2.5 0 1 0 4.017 2.977 8.363 8.363 0 0 1 13.445 0 2.5 2.5 0 0 0 4.017-2.978 13.362 13.362 0 0 0 -21.479.001z" data-original="#000000" class=""/><path d="m108.6 77.037a2.5 2.5 0 0 0 -2.5 2.5v3.642a2.5 2.5 0 0 0 5 0v-3.642a2.5 2.5 0 0 0 -2.5-2.5z" data-original="#000000" class=""/><path d="m147.643 77.037a2.5 2.5 0 0 0 -2.5 2.5v3.642a2.5 2.5 0 0 0 5 0v-3.642a2.5 2.5 0 0 0 -2.5-2.5z" data-original="#000000" class=""/><path d="m124.013 109.111h6.831c8.753 0 11.338-12 3.6-16.359l.059-14.415a2.5 2.5 0 0 0 -2.489-2.51h-.011a2.5 2.5 0 0 0 -2.5 2.489l-.066 16.05a2.5 2.5 0 0 0 1.75 2.395c4.393 1.383 3.381 7.947-.8 7.35h-6.422a2.5 2.5 0 0 0 .049 5z" data-original="#000000" class=""/><path d="m128.121 164.027a37.582 37.582 0 0 0 -9.582 73.923l7.311 15.913a2.5 2.5 0 0 0 4.543 0l7.307-15.913a37.582 37.582 0 0 0 -9.583-73.923zm7.26 69.345a2.5 2.5 0 0 0 -1.716 1.393l-5.544 12.066-5.543-12.066a2.5 2.5 0 0 0 -1.717-1.393 32.584 32.584 0 1 1 14.52 0z" data-original="#000000" class=""/><path d="m140.457 188.233a2.5 2.5 0 0 0 -3.536 0l-8.8 8.8-8.8-8.8a2.5 2.5 0 0 0 -3.535 3.536l8.8 8.8-8.8 8.8a2.5 2.5 0 1 0 3.535 3.535l8.8-8.8 8.8 8.8a2.5 2.5 0 1 0 3.536-3.535l-8.8-8.8 8.8-8.8a2.5 2.5 0 0 0 0-3.536z" data-original="#000000" class=""/><path d="m216.7 164.03a37.552 37.552 0 0 0 -37.58 37.58 2.5 2.5 0 0 0 5 0 32.58 32.58 0 1 1 39.84 31.76 2.525 2.525 0 0 0 -1.72 1.4l-5.54 12.06-5.54-12.06a2.5 2.5 0 0 0 -1.72-1.4 32.764 32.764 0 0 1 -20.58-14.83 2.5 2.5 0 1 0 -4.27 2.6 37.687 37.687 0 0 0 22.53 16.81l7.31 15.91a2.5 2.5 0 0 0 4.54 0l7.31-15.91a37.579 37.579 0 0 0 -9.58-73.92z" data-original="#000000" class=""/><path d="m185.22 210.03a2.54 2.54 0 0 0 -3.06-1.77 2.5 2.5 0 1 0 3.06 1.77z" data-original="#000000" class=""/><path d="m216.244 212.457 13.148-21.136a2.5 2.5 0 0 0 -4.246-2.64l-11.225 18.045-5.794-7.664a2.5 2.5 0 0 0 -3.988 3.014l7.988 10.568a2.5 2.5 0 0 0 4.117-.187z" data-original="#000000" class=""/><path d="m39.3 164.03a37.545 37.545 0 0 0 -37.58 37.58 2.5 2.5 0 0 0 5 0 32.58 32.58 0 1 1 39.84 31.76 2.5 2.5 0 0 0 -1.72 1.4l-5.54 12.06-5.54-12.06a2.525 2.525 0 0 0 -1.72-1.4 32.784 32.784 0 0 1 -20.59-14.83 2.5 2.5 0 1 0 -4.26 2.6 37.6 37.6 0 0 0 22.53 16.81l7.31 15.91a2.5 2.5 0 0 0 4.54 0l7.31-15.91a37.581 37.581 0 0 0 -9.58-73.92z" data-original="#000000" class=""/><path d="m7.81 210.03a2.5 2.5 0 1 0 -1.77 3.06 2.5 2.5 0 0 0 1.77-3.06z" data-original="#000000" class=""/><path d="m38.841 212.457 13.148-21.136a2.5 2.5 0 1 0 -4.245-2.64l-11.225 18.045-5.794-7.664a2.5 2.5 0 0 0 -3.988 3.014l7.988 10.568a2.5 2.5 0 0 0 4.116-.187z" data-original="#000000" class=""/></g> </svg>
