<?xml version="1.0"?>
<svg xmlns="http://www.w3.org/2000/svg" id="Capa_1" enable-background="new 0 0 512.127 512.127" height="512px" viewBox="0 0 512.127 512.127" width="512px" class=""><g><link xmlns="" type="text/css" id="dark-mode" rel="stylesheet"/><style xmlns="" type="text/css" id="dark-mode-custom-style"/><g id="XMLID_2094_"><g id="XMLID_2338_"><path id="XMLID_511_" d="m10.063 256.127c0 135.862 110.138 246 246 246s246-110.138 246-246z" fill="#91def5" data-original="#91DEF5" class="" style="fill:#2BB0E3" data-old_color="#91def5"/></g><g id="XMLID_2372_"><path id="XMLID_510_" d="m344.869 282.211c0 14.608 11.842 26.449 26.449 26.449h.001c11.816 0 21.396 9.579 21.396 21.396 0 11.816-9.579 21.396-21.396 21.396h-18.885c-16.761 0-30.348 13.587-30.348 30.348 0 16.761 13.587 30.348 30.348 30.348h93.823c34.869-42.457 55.805-96.792 55.805-156.02h-135.107c-12.531 2.08-22.086 12.963-22.086 26.083z" fill="#d8ec84" data-original="#D8EC84" class="" style="fill:#33B08F" data-old_color="#d8ec84"/></g><g id="XMLID_2373_"><path id="XMLID_509_" d="m200.58 375.883h-159.431c16.004 28.66 37.562 53.796 63.236 73.93h96.194c20.415 0 36.965-16.55 36.965-36.965.001-20.416-16.549-36.965-36.964-36.965z" fill="#d8ec84" data-original="#D8EC84" class="" style="fill:#33B08F" data-old_color="#d8ec84"/></g><g id="XMLID_2371_"><path id="XMLID_508_" d="m65.148 313.829c15.934 0 28.851-12.917 28.851-28.851 0-15.934-12.917-28.851-28.851-28.851h-55.085c0 19.875 2.374 39.193 6.823 57.702z" fill="#d8ec84" data-original="#D8EC84" class="" style="fill:#33B08F" data-old_color="#d8ec84"/></g><g id="XMLID_2203_"><path id="XMLID_507_" d="m48.042 56h104v200h-104z" fill="#ffcb7c" data-original="#FFCB7C" class="" style="fill:#FFDE59" data-old_color="#ffcb7c"/></g><g id="XMLID_2199_"><path id="XMLID_460_" d="m152.042 98.416h96v157.584h-96z" fill="#b0e7f8" data-original="#B0E7F8" class="active-path" style="fill:#FFB69E" data-old_color="#b0e7f8"/></g><g id="XMLID_205_"><path id="XMLID_489_" d="m502.063 246.127h-38v-163.381l33 19.053c1.575.909 3.294 1.342 4.99 1.342 3.456 0 6.818-1.794 8.67-5.002 2.762-4.783 1.123-10.898-3.66-13.66l-43-24.826v-49.653c0-5.522-4.478-10-10-10s-10 4.478-10 10v49.652l-43 24.826c-4.783 2.762-6.422 8.877-3.66 13.66 1.853 3.208 5.213 5.002 8.67 5.002 1.696 0 3.416-.433 4.99-1.342l33-19.053v163.381h-98v-127.88l33 19.053c1.575.909 3.294 1.342 4.99 1.342 3.456 0 6.818-1.794 8.67-5.002 2.762-4.783 1.123-10.898-3.66-13.66l-43-24.826v-49.653c0-5.522-4.478-10-10-10s-10 4.478-10 10v49.652l-43 24.826c-4.783 2.762-6.422 8.877-3.66 13.66 1.853 3.208 5.213 5.002 8.67 5.002 1.696 0 3.416-.433 4.99-1.342l33-19.053v127.881h-68.021v-147.71c0-5.522-4.478-10-10-10h-86v-32.416c0-5.522-4.478-10-10-10h-104c-5.522 0-10 4.478-10 10v190.127h-27.979c-5.522 0-10 4.478-10 10 0 68.38 26.629 132.667 74.98 181.02 48.353 48.352 112.64 74.98 181.02 74.98s132.667-26.629 181.02-74.98c48.352-48.353 74.98-112.64 74.98-181.02 0-5.523-4.478-10-10-10zm-264.021-137.711v137.711h-76v-137.711zm-180 117.584h34.75c5.522 0 10-4.478 10-10s-4.478-10-10-10h-34.75v-20h34.75c5.522 0 10-4.478 10-10s-4.478-10-10-10h-34.75v-20h34.75c5.522 0 10-4.478 10-10s-4.478-10-10-10h-34.75v-20h34.75c5.522 0 10-4.478 10-10s-4.478-10-10-10h-34.75v-20h84v180.127h-84zm7.107 40.127c10.395 0 18.851 8.457 18.851 18.852s-8.456 18.851-18.851 18.851h-40.224c-2.525-12.253-4.115-24.843-4.654-37.702h44.878zm71.825 193.686h63.606c25.896 0 46.965-21.068 46.965-46.965s-21.068-46.965-46.965-46.965h-17.79c-5.522 0-10 4.478-10 10s4.478 10 10 10h17.79c14.868 0 26.965 12.097 26.965 26.965s-12.097 26.965-26.965 26.965h-92.513c-18.981-15.323-35.543-33.523-49.028-53.93h33.753c5.522 0 10-4.478 10-10s-4.478-10-10-10h-45.602c-7.028-13.321-12.821-27.388-17.221-42.054h35.18c21.422 0 38.851-17.429 38.851-38.852 0-6.837-1.782-13.264-4.896-18.851h239.705c-2.513 4.946-3.938 10.532-3.938 16.449 0 20.099 16.352 36.449 36.45 36.449 6.283 0 11.396 5.112 11.396 11.396s-5.112 11.396-11.396 11.396h-18.886c-22.248 0-40.348 18.1-40.348 40.348s18.1 40.348 40.348 40.348h70.834c-42.766 42.975-101.933 69.615-167.206 69.615-43.407 0-84.111-11.784-119.089-32.314zm304.065-57.301h-88.605c-11.22 0-20.348-9.128-20.348-20.348s9.128-20.348 20.348-20.348h18.886c17.312 0 31.396-14.084 31.396-31.396s-14.084-31.396-31.396-31.396c-9.07 0-16.449-7.379-16.449-16.449s7.379-16.449 16.449-16.449h120.535c-2.155 51.384-20.825 98.568-50.816 136.386z" data-original="#000000" class="" style="fill:#000000"/><path id="XMLID_503_" d="m192.042 146h16c5.522 0 10-4.478 10-10s-4.478-10-10-10h-16c-5.522 0-10 4.478-10 10s4.478 10 10 10z" data-original="#000000" class="" style="fill:#000000"/><path id="XMLID_504_" d="m192.042 186h16c5.522 0 10-4.478 10-10s-4.478-10-10-10h-16c-5.522 0-10 4.478-10 10s4.478 10 10 10z" data-original="#000000" class="" style="fill:#000000"/><path id="XMLID_505_" d="m192.042 226h16c5.522 0 10-4.478 10-10s-4.478-10-10-10h-16c-5.522 0-10 4.478-10 10s4.478 10 10 10z" data-original="#000000" class="" style="fill:#000000"/><path id="XMLID_506_" d="m137.792 365.883c-2.64 0-5.21 1.07-7.069 2.931-1.86 1.859-2.931 4.43-2.931 7.069 0 2.631 1.07 5.211 2.931 7.07 1.859 1.86 4.439 2.93 7.069 2.93s5.21-1.069 7.07-2.93c1.86-1.859 2.93-4.439 2.93-7.07 0-2.63-1.069-5.21-2.93-7.069-1.86-1.861-4.44-2.931-7.07-2.931z" data-original="#000000" class="" style="fill:#000000"/></g></g></g> </svg>
