<?xml version="1.0"?>
<svg xmlns="http://www.w3.org/2000/svg" id="Layer_1" enable-background="new 0 0 128 128" height="512px" viewBox="0 0 128 128" width="512px" class=""><g><link xmlns="" type="text/css" id="dark-mode" rel="stylesheet"/><style xmlns="" type="text/css" id="dark-mode-custom-style"/><path d="m120.883 68.21c0-6.341-4.605-12.158-12.24-16.681 2.325-8.926 1.233-16.146-3.19-20.569-4.424-4.424-11.645-5.514-20.569-3.19-3.199-5.4-7.046-9.279-11.268-11.089.001-.05.008-.099.008-.15 0-2.989-2.432-5.421-5.421-5.421s-5.421 2.432-5.421 5.421c0 .051.006.1.008.15-4.222 1.81-8.068 5.689-11.268 11.089-8.926-2.324-16.146-1.233-20.569 3.19-4.497 4.497-5.345 11.898-3.119 20.529-5.193 3.064-8.982 6.726-10.896 10.744-.132-.01-.264-.02-.399-.02-2.989 0-5.421 2.432-5.421 5.421 0 2.959 2.384 5.368 5.331 5.416 1.702 4.465 5.705 8.531 11.386 11.882-2.226 8.631-1.378 16.031 3.119 20.528 2.913 2.913 7.038 4.383 12.065 4.383 2.605 0 5.456-.402 8.502-1.195 4.524 7.637 10.341 12.242 16.682 12.242s12.159-4.605 16.682-12.242c3.046.793 5.897 1.195 8.502 1.195 2.773 0 5.26-.464 7.433-1.355.98.967 2.324 1.566 3.805 1.566 2.989 0 5.421-2.432 5.421-5.421 0-1.477-.595-2.817-1.557-3.795 1.728-4.214 1.791-9.654.152-15.946 7.637-4.524 12.242-10.341 12.242-16.682zm-57.675-49.573c.823 1.946 2.752 3.316 4.995 3.316s4.172-1.369 4.995-3.316c3.641 1.625 6.978 4.995 9.81 9.665-.602.184-1.209.379-1.825.593-4.246 1.472-8.619 3.591-12.98 6.245-4.361-2.653-8.734-4.772-12.98-6.245-.616-.214-1.223-.409-1.825-.593 2.832-4.671 6.169-8.04 9.81-9.665zm-44.783 54.072c2.06-.768 3.535-2.75 3.535-5.076 0-2.158-1.27-4.02-3.1-4.892 1.707-3.474 5.001-6.659 9.501-9.377 1.428 4.715 3.729 9.748 6.815 14.845-3.086 5.097-5.387 10.13-6.815 14.845-4.917-2.967-8.395-6.493-9.936-10.345zm49.778 46.181c-5.58 0-10.719-4.032-14.805-10.77.602-.184 1.209-.379 1.825-.593 4.246-1.473 8.619-3.592 12.98-6.245 4.361 2.653 8.735 4.772 12.98 6.245.616.214 1.223.409 1.825.593-4.086 6.738-9.224 10.77-14.805 10.77zm39.909-35.874c-.184-.602-.379-1.209-.593-1.825-1.472-4.246-3.591-8.619-6.244-12.98 2.653-4.361 4.772-8.734 6.244-12.98.214-.616.409-1.223.593-1.825 6.738 4.086 10.771 9.225 10.771 14.805s-4.032 10.718-10.771 14.805z" fill="#e6e7e8" data-original="#E6E7E8" class=""/><path d="m100.746 27.668c-7.015-7.015-21.48-4.672-36.543 4.645-15.063-9.317-29.528-11.66-36.543-4.645s-4.672 21.48 4.645 36.543c-9.317 15.063-11.66 29.528-4.645 36.543s21.48 4.672 36.543-4.645c15.063 9.317 29.528 11.66 36.543 4.645s4.672-21.48-4.645-36.543c9.317-15.063 11.66-29.529 4.645-36.543z" fill="#ffd7e5" data-original="#FFD7E5" class="" style="fill:#33B08F" data-old_color="#ffd7e5"/><circle cx="64.203" cy="64.211" fill="#fff" r="8.046" data-original="#FFF" class=""/><path d="m59.157 67.211c0 1.451.39 2.809 1.062 3.984 1.176.672 2.533 1.062 3.984 1.062 4.444 0 8.046-3.602 8.046-8.046 0-1.451-.39-2.809-1.062-3.984-1.176-.672-2.533-1.062-3.984-1.062-4.444-.001-8.046 3.602-8.046 8.046z" fill="#6dc9f7" data-original="#6DC9F7" class=""/><circle cx="12.538" cy="63.634" fill="#6dc9f7" r="4.421" data-original="#6DC9F7" class=""/><circle cx="64.203" cy="12.531" fill="#fa759e" r="4.421" data-original="#FA759E" class="" style="fill:#BA6C64" data-old_color="#fa759e"/><circle cx="100.625" cy="100.633" fill="#0089ef" r="4.421" data-original="#0089EF" class="active-path" style="fill:#FFDE59" data-old_color="#0089ef"/><g fill="#3a2c60"><path d="m64.203 55.164c-4.988 0-9.046 4.058-9.046 9.046s4.058 9.046 9.046 9.046 9.046-4.058 9.046-9.046-4.058-9.046-9.046-9.046zm0 16.093c-3.885 0-7.046-3.161-7.046-7.046s3.161-7.046 7.046-7.046 7.046 3.161 7.046 7.046-3.161 7.046-7.046 7.046z" data-original="#3A2C60" class=""/><path d="m115.883 63.21c-.552 0-1 .448-1 1 0 2.08-.574 4.15-1.706 6.152-.271.481-.103 1.091.378 1.363.155.088.325.129.491.129.349 0 .688-.183.872-.508 1.304-2.306 1.965-4.707 1.965-7.136 0-.552-.448-1-1-1z" data-original="#3A2C60" class=""/><path d="m110.449 73.988c-1.727 1.821-3.896 3.504-6.421 5.031-1.427-4.704-3.722-9.723-6.798-14.807 3.081-5.089 5.379-10.114 6.808-14.822 4.805 2.902 8.268 6.353 9.874 10.158.214.509.8.749 1.31.533.509-.215.748-.801.533-1.31-1.802-4.271-5.738-8.12-11.175-11.307 2.217-8.62 1.367-16.01-3.126-20.503-4.423-4.423-11.644-5.513-20.572-3.188-3.199-5.395-7.045-9.268-11.265-11.078.002-.055.008-.108.008-.163 0-2.989-2.432-5.421-5.421-5.421s-5.421 2.432-5.421 5.421c0 .055.007.108.008.163-4.238 1.817-8.098 5.718-11.305 11.148-8.632-2.227-16.034-1.38-20.532 3.118s-5.345 11.9-3.118 20.534c-5.189 3.064-8.985 6.723-10.898 10.739-.132-.01-.264-.02-.399-.02-2.989 0-5.421 2.432-5.421 5.421 0 2.958 2.383 5.367 5.33 5.417 1.701 4.463 5.713 8.525 11.389 11.876-2.227 8.633-1.38 16.036 3.117 20.534 2.923 2.923 7.07 4.307 11.985 4.307 2.644 0 5.519-.424 8.536-1.201 4.53 7.684 10.366 12.324 16.729 12.324 6.341 0 12.158-4.605 16.682-12.242 3.047.793 5.897 1.195 8.502 1.195 2.774 0 5.268-.456 7.44-1.348.979.963 2.32 1.559 3.798 1.559 2.989 0 5.421-2.432 5.421-5.421 0-1.492-.606-2.846-1.585-3.827 1.704-4.265 1.681-9.728.126-15.807 2.891-1.693 5.365-3.58 7.314-5.633.38-.401.363-1.034-.037-1.414-.402-.383-1.035-.366-1.416.034zm-8.098 5.995c-4.06 2.211-8.913 4.044-14.294 5.421.736-3.371 1.308-6.921 1.682-10.616 2.356-2.887 4.468-5.811 6.336-8.725 2.861 4.814 4.976 9.531 6.276 13.92zm-14.084-15.773c0 3.346-.159 6.614-.454 9.78-2.03 2.447-4.228 4.87-6.594 7.236-2.362 2.362-4.781 4.557-7.225 6.585-3.191.302-6.466.463-9.791.463-3.347 0-6.616-.159-9.783-.454-2.464-2.044-4.885-4.246-7.233-6.594-2.366-2.366-4.564-4.789-6.594-7.236-.295-3.166-.454-6.434-.454-9.78s.159-6.614.455-9.78c2.03-2.447 4.228-4.87 6.594-7.236 2.347-2.347 4.768-4.549 7.232-6.593 3.167-.296 6.436-.456 9.784-.456 3.331 0 6.597.162 9.772.461 2.45 2.031 4.876 4.22 7.244 6.587 2.366 2.366 4.563 4.789 6.593 7.237.295 3.167.454 6.435.454 9.78zm1.769-7.003c1.797 2.332 3.436 4.675 4.905 7.004-1.47 2.33-3.112 4.674-4.911 7.007.152-2.294.237-4.63.237-7.007 0-2.375-.08-4.712-.231-7.004zm-7.403-11.426c-1.678-1.678-3.387-3.266-5.114-4.779 2.914.381 5.729.885 8.423 1.498.606 2.678 1.102 5.486 1.479 8.397-1.513-1.728-3.109-3.437-4.788-5.116zm-7.84-7.095c-2.888-2.358-5.813-4.471-8.728-6.341 3.963-2.346 7.924-4.227 11.773-5.561.743-.258 1.47-.484 2.189-.697 2.184 4.023 4.024 8.855 5.405 14.283-3.388-.74-6.95-1.308-10.639-1.684zm-3.605-.308c-2.292-.152-4.624-.232-6.985-.232-2.371 0-4.705.079-6.994.23 2.311-1.78 4.649-3.421 6.994-4.896 2.324 1.466 4.659 3.106 6.985 4.898zm-17.583.305c-3.699.376-7.256.943-10.629 1.681 1.386-5.445 3.233-10.29 5.427-14.32 4.385 1.297 9.101 3.424 13.911 6.279-2.933 1.891-5.85 4.017-8.709 6.36zm-2.713 2.306c-1.736 1.525-3.447 3.12-5.118 4.791-1.682 1.682-3.274 3.396-4.79 5.127.378-2.923.877-5.742 1.486-8.431 2.685-.608 5.501-1.108 8.422-1.487zm-12.217 12.636c-2.359 2.89-4.473 5.816-6.343 8.733-2.869-4.826-4.991-9.555-6.291-13.953 4.028-2.191 8.875-4.034 14.315-5.418-.739 3.375-1.306 6.936-1.681 10.638zm-.305 3.588c-.151 2.29-.231 4.625-.231 6.997 0 2.377.086 4.712.237 7.006-1.798-2.332-3.44-4.676-4.91-7.006 1.468-2.326 3.109-4.667 4.904-6.997zm.297 17.574c.375 3.707.95 7.268 1.689 10.649-5.44-1.384-10.288-3.225-14.317-5.415 1.301-4.4 3.422-9.13 6.292-13.957 1.869 2.913 3.98 5.837 6.336 8.723zm2.32 2.731c1.515 1.729 3.106 3.442 4.787 5.122 1.67 1.67 3.379 3.264 5.114 4.787-2.919-.378-5.733-.877-8.419-1.485-.609-2.686-1.104-5.504-1.482-8.424zm12.617 12.22c2.862 2.345 5.78 4.472 8.714 6.364-4.815 2.86-9.533 4.974-13.922 6.272-2.19-4.029-4.034-8.872-5.418-14.313 3.372.737 6.929 1.301 10.626 1.677zm3.601.304c2.29.151 4.625.232 6.998.232 2.362 0 4.7-.082 7.003-.235-2.33 1.796-4.671 3.437-6.998 4.905-2.348-1.476-4.689-3.119-7.003-4.902zm17.567-.302c3.683-.373 7.253-.938 10.656-1.676-1.38 5.422-3.216 10.251-5.396 14.272-.72-.213-1.449-.441-2.193-.699-3.849-1.335-7.811-3.216-11.775-5.563 2.909-1.864 5.825-3.982 8.708-6.334zm2.753-2.327c1.725-1.511 3.433-3.096 5.109-4.772 1.68-1.68 3.271-3.393 4.786-5.122-.377 2.91-.87 5.718-1.476 8.396-2.699.615-5.515 1.117-8.419 1.498zm18.55-25.056c-1.867-2.913-3.987-5.835-6.342-8.721-.375-3.697-.94-7.253-1.676-10.625 5.409 1.382 10.262 3.217 14.303 5.414-1.302 4.393-3.421 9.114-6.285 13.932zm-6.685-37.785c4.482 0 8.121 1.274 10.649 3.802 3.955 3.955 4.732 10.461 2.839 18.139-4.362-2.319-9.557-4.239-15.321-5.652-1.419-5.772-3.346-10.946-5.664-15.282 2.694-.666 5.208-1.007 7.497-1.007zm-25.187-15.462c1.887 0 3.421 1.535 3.421 3.421s-1.535 3.421-3.421 3.421-3.421-1.535-3.421-3.421 1.534-3.421 3.421-3.421zm-4.991 5.538c.826 1.94 2.752 3.305 4.991 3.305s4.165-1.364 4.991-3.305c3.641 1.624 6.978 4.988 9.811 9.655-.601.184-1.207.378-1.822.591-4.258 1.477-8.644 3.603-13.017 6.267-5.083-3.074-10.102-5.367-14.805-6.792 2.842-4.701 6.193-8.09 9.851-9.721zm-30.845 13.727c2.601-2.601 6.303-3.832 10.716-3.832 2.305 0 4.81.351 7.448 1.003-2.326 4.342-4.258 9.527-5.681 15.313-5.786 1.423-10.974 3.353-15.317 5.678-1.899-7.689-1.125-14.203 2.834-18.162zm-19.25 35.258c0-1.886 1.535-3.421 3.421-3.421s3.421 1.535 3.421 3.421c0 1.887-1.535 3.421-3.421 3.421-1.886.001-3.421-1.534-3.421-3.421zm5.306 5.077c2.062-.768 3.537-2.751 3.537-5.077 0-2.158-1.27-4.019-3.099-4.891 1.707-3.474 5-6.662 9.5-9.38 1.428 4.716 3.729 9.75 6.816 14.848-3.086 5.097-5.387 10.13-6.815 14.845-4.916-2.968-8.398-6.494-9.939-10.345zm13.944 31.336c-3.96-3.96-4.733-10.476-2.833-18.165 4.344 2.326 9.526 4.262 15.315 5.685 1.422 5.786 3.354 10.971 5.678 15.314-7.687 1.9-14.201 1.126-18.16-2.834zm35.836 14.844c-5.6 0-10.755-4.061-14.849-10.843 4.702-1.423 9.718-3.721 14.802-6.793 4.377 2.667 8.766 4.795 13.027 6.273.616.214 1.223.409 1.825.593-4.086 6.738-9.225 10.77-14.805 10.77zm36.423-10.836c-1.887 0-3.421-1.535-3.421-3.421s1.535-3.421 3.421-3.421 3.421 1.535 3.421 3.421c-.001 1.887-1.535 3.421-3.421 3.421zm2.174-8.383c-.666-.293-1.401-.459-2.174-.459-2.989 0-5.421 2.432-5.421 5.421 0 .772.165 1.505.456 2.17-3.642 1.365-8.325 1.389-13.764.044 2.315-4.333 4.239-9.502 5.657-15.269 5.748-1.4 10.953-3.309 15.331-5.631 1.294 5.282 1.32 10.005-.085 13.724z" data-original="#3A2C60" class=""/></g></g> </svg>
