<?xml version="1.0"?>
<svg xmlns="http://www.w3.org/2000/svg" xmlns:xlink="http://www.w3.org/1999/xlink" version="1.1" id="Capa_1" x="0px" y="0px" viewBox="0 0 512 512" style="enable-background:new 0 0 512 512;" xml:space="preserve" width="512px" height="512px" class=""><g><link xmlns="" type="text/css" id="dark-mode" rel="stylesheet"/><style xmlns="" type="text/css" id="dark-mode-custom-style"/><circle style="fill:#33B08F" cx="256" cy="256" r="256" data-original="#5C5E70" class="" data-old_color="#5C5E70"/><g>
	<path style="fill:#A3FFE7" d="M275.912,323.244l-10.467-3.139c-2.255-0.676-4.698-0.2-6.534,1.275l-8.52,6.842   c-4.623,3.713-11.495,0.513-11.63-5.414l-0.249-10.924c-0.053-2.353-1.262-4.53-3.231-5.82l-9.141-5.988   c-4.959-3.249-4.04-10.774,1.555-12.733l10.313-3.612c2.221-0.778,3.918-2.6,4.537-4.871l2.87-10.543   c1.557-5.72,8.998-7.171,12.591-2.456l6.623,8.691c1.426,1.872,3.683,2.924,6.035,2.81l10.914-0.528   c5.921-0.286,9.6,6.341,6.227,11.216l-6.22,8.984c-1.34,1.935-1.642,4.406-0.807,6.608l3.874,10.217   C286.757,319.4,281.59,324.948,275.912,323.244z" data-original="#797B89" class="active-path" data-old_color="#797B89"/>
	<path style="fill:#A3FFE7" d="M269.013,198.828l-4.535-6.123c-0.977-1.319-2.54-2.073-4.182-2.016l-7.615,0.264   c-4.132,0.143-6.634-4.513-4.235-7.88l4.422-6.206c0.953-1.336,1.187-3.057,0.625-4.6l-2.605-7.161   c-1.413-3.885,2.241-7.704,6.185-6.463l7.268,2.288c1.566,0.493,3.274,0.184,4.567-0.827l6.005-4.691   c3.258-2.544,8.02-0.249,8.057,3.885l0.07,7.619c0.015,1.642,0.837,3.17,2.197,4.089l6.316,4.262   c3.427,2.312,2.715,7.55-1.205,8.864l-7.224,2.421c-1.557,0.521-2.756,1.775-3.21,3.353l-2.101,7.324   C276.675,201.209,271.474,202.15,269.013,198.828z" data-original="#797B89" class="active-path" data-old_color="#797B89"/>
	<path style="fill:#A3FFE7" d="M188.442,473.399l-4.535-6.123c-0.977-1.319-2.54-2.073-4.182-2.016l-7.615,0.264   c-4.132,0.143-6.634-4.513-4.235-7.88l4.422-6.206c0.953-1.336,1.187-3.057,0.625-4.6l-2.604-7.16   c-1.413-3.885,2.241-7.704,6.185-6.463l7.268,2.288c1.566,0.493,3.274,0.184,4.567-0.827l6.005-4.691   c3.258-2.544,8.02-0.249,8.057,3.885l0.07,7.619c0.015,1.642,0.837,3.17,2.197,4.089l6.316,4.262   c3.427,2.312,2.715,7.55-1.205,8.864l-7.224,2.421c-1.557,0.521-2.756,1.775-3.21,3.353l-2.101,7.324   C196.104,475.781,190.903,476.722,188.442,473.399z" data-original="#797B89" class="active-path" data-old_color="#797B89"/>
	<path style="fill:#A3FFE7" d="M44.404,214.217l-4.535-6.123c-0.977-1.319-2.54-2.073-4.182-2.016l-7.615,0.264   c-4.132,0.143-6.634-4.513-4.235-7.88l4.422-6.206c0.953-1.336,1.187-3.057,0.625-4.6l-2.605-7.161   c-1.413-3.885,2.241-7.704,6.185-6.463l7.268,2.288c1.566,0.493,3.274,0.184,4.567-0.827l6.005-4.691   c3.258-2.544,8.02-0.249,8.057,3.885l0.07,7.619c0.015,1.642,0.837,3.17,2.197,4.089l6.316,4.262   c3.427,2.312,2.715,7.55-1.205,8.864l-7.224,2.421c-1.557,0.521-2.756,1.775-3.21,3.353l-2.101,7.324   C52.066,216.598,46.865,217.539,44.404,214.217z" data-original="#797B89" class="active-path" data-old_color="#797B89"/>
	<path style="fill:#A3FFE7" d="M284.954,476.806l-7.357-9.934c-1.585-2.14-4.122-3.364-6.783-3.271l-12.354,0.429   c-6.702,0.233-10.762-7.321-6.87-12.782l7.174-10.067c1.545-2.169,1.925-4.959,1.015-7.462l-4.226-11.617   c-2.293-6.303,3.636-12.498,10.034-10.484l11.791,3.711c2.54,0.799,5.311,0.298,7.41-1.341l9.743-7.609   c5.285-4.128,13.01-0.403,13.072,6.303l0.114,12.361c0.024,2.663,1.357,5.144,3.565,6.633l10.247,6.914   c5.559,3.751,4.404,12.248-1.955,14.38l-11.721,3.928c-2.526,0.846-4.472,2.881-5.207,5.441l-3.41,11.883   C297.384,480.668,288.946,482.195,284.954,476.806z" data-original="#797B89" class="active-path" data-old_color="#797B89"/>
	<path style="fill:#A3FFE7" d="M330.564,69.426l-4.535-6.123c-0.977-1.319-2.54-2.073-4.182-2.016l-7.615,0.264   c-4.132,0.143-6.634-4.513-4.235-7.88l4.422-6.206c0.953-1.336,1.187-3.057,0.625-4.6l-2.605-7.161   c-1.413-3.885,2.241-7.704,6.185-6.463l7.268,2.288c1.566,0.493,3.274,0.184,4.567-0.827l6.005-4.691   c3.258-2.544,8.02-0.249,8.057,3.885l0.07,7.619c0.015,1.642,0.837,3.17,2.197,4.089l6.316,4.262   c3.427,2.312,2.715,7.55-1.205,8.864l-7.224,2.421c-1.557,0.521-2.756,1.775-3.21,3.353l-2.101,7.324   C338.225,71.806,333.024,72.748,330.564,69.426z" data-original="#797B89" class="active-path" data-old_color="#797B89"/>
	<path style="fill:#A3FFE7" d="M220.322,66.545l-4.535-6.123c-0.977-1.319-2.54-2.073-4.182-2.016l-7.615,0.264   c-4.132,0.143-6.634-4.513-4.235-7.88l4.422-6.206c0.953-1.336,1.187-3.057,0.625-4.6l-2.605-7.161   c-1.413-3.885,2.241-7.704,6.185-6.463l7.268,2.288c1.566,0.493,3.274,0.184,4.567-0.827l6.005-4.691   c3.258-2.544,8.02-0.249,8.057,3.885l0.07,7.619c0.015,1.642,0.837,3.17,2.197,4.089l6.316,4.262   c3.427,2.312,2.715,7.55-1.205,8.864l-7.224,2.421c-1.557,0.521-2.756,1.775-3.21,3.353l-2.101,7.324   C227.984,68.927,222.783,69.868,220.322,66.545z" data-original="#797B89" class="active-path" data-old_color="#797B89"/>
</g><path style="fill:#E5BFA3;" d="M273.611,32.336l-54.322,137.597l-22.742-8.977l-8.667-3.43l54.306-137.597  c3.429-8.667,13.241-12.932,21.924-9.501c1.823,0.726,3.461,1.715,4.851,2.951C274.228,17.922,276.315,25.477,273.611,32.336z" data-original="#E5BFA3" class=""/><path style="fill:#F9D6B9;" d="M273.611,32.336l-54.322,137.597l-22.742-8.977l54.106-137.102  c2.966-7.478,10.676-11.68,18.309-10.475C274.228,17.922,276.315,25.477,273.611,32.336z" data-original="#F9D6B9" class=""/><polygon style="fill:#2BB0E3" points="219.293,169.928 187.875,157.525 151.711,215.682 178.499,272.178 " data-original="#34ABE0" class="" data-old_color="#34ABE0"/><path style="fill:#F9D6B9;" d="M156.686,476.389h-31.002c-19.404-11.494-37.146-25.475-52.809-41.503  c-28.547-29.215-50.155-65.233-62.161-105.399v-52.318h88.806l45.255,157.717L156.686,476.389z" data-original="#F9D6B9" class=""/><path style="fill:#E5BFA3;" d="M27.317,277.179v93.978c-6.698-13.27-12.278-27.199-16.603-41.671v-52.308H27.317z" data-original="#E5BFA3" class=""/><rect x="10.711" y="311.568" style="fill:#279FC9" width="142.106" height="11.265" data-original="#279FC9" class=""/><g>
	<path style="fill:#2BB0E3" d="M178.499,214.383v97.188H10.713v-34.4c0-33.937,26.911-61.597,60.565-62.788   c0.747-0.036,1.512-0.053,2.277-0.053L178.499,214.383z" data-original="#34ABE0" class="" data-old_color="#34ABE0"/>
	<path style="fill:#2BB0E3" d="M178.503,250.952v183.933H72.874c-4.305-4.399-8.443-8.955-12.413-13.657   c-5.674-6.698-11.003-13.699-15.966-20.971V250.952c0-16.812,11.327-30.981,26.781-35.276c3.135-0.888,6.426-1.348,9.843-1.348   h60.761c3.406,0,6.698,0.46,9.832,1.348C167.166,219.971,178.503,234.14,178.503,250.952z" data-original="#34ABE0" class="" data-old_color="#34ABE0"/>
</g><g>
	<path style="fill:#279FC9" d="M187.875,157.525l-28.504,44.815c-4.765,7.492-13.029,12.026-21.907,12.018   c-22.546-0.019-63.909-0.028-63.909-0.028c-0.765,0-1.53,0.018-2.277,0.053v2.956c0,22.168,17.605,40.753,39.772,40.993   c18.387,0.2,33.995-12.002,38.985-28.74c9.725-4.533,17.66-12.179,22.549-21.73l23.756-46.41L187.875,157.525z" data-original="#279FC9" class=""/>
	<path style="fill:#279FC9" d="M95.291,214.383c0.747-0.036,1.512-0.053,2.277-0.053H73.555c-0.765,0-1.53,0.018-2.277,0.053   c-33.653,1.192-60.565,28.851-60.565,62.788v34.4h24.013v-34.4C34.726,243.233,61.637,215.575,95.291,214.383z" data-original="#279FC9" class=""/>
</g><g>
	<path style="fill:#E5BFA3;" d="M141.035,186.385v31.734c0,16.315-13.226,29.541-29.541,29.541l0,0   c-16.315,0-29.541-13.226-29.541-29.541v-31.734H141.035z" data-original="#E5BFA3" class=""/>
	<circle style="fill:#E5BFA3;" cx="47.719" cy="134.468" r="18.259" data-original="#E5BFA3" class=""/>
	<circle style="fill:#E5BFA3;" cx="175.271" cy="134.468" r="18.259" data-original="#E5BFA3" class=""/>
</g><path style="fill:#F9D6B9;" d="M177.269,82.354L45.72,75.351v73.379c0,36.327,29.448,65.775,65.775,65.775l0,0  c36.327,0,65.775-29.448,65.775-65.775V82.354H177.269z" data-original="#F9D6B9" class=""/><g>
	<path style="fill:#E5BFA3;" d="M111.495,154.689L111.495,154.689c-3.675,0-6.653-2.979-6.653-6.653V95.86h13.307v52.175   C118.148,151.71,115.169,154.689,111.495,154.689z" data-original="#E5BFA3" class=""/>
	<path style="fill:#E5BFA3;" d="M71.965,148.73V76.748l-26.247-1.397v73.379c0,36.327,29.448,65.775,65.775,65.775l0,0   c4.494,0,8.882-0.453,13.123-1.312C94.579,207.109,71.965,180.561,71.965,148.73z" data-original="#E5BFA3" class=""/>
</g><path style="fill:#FFDE59" d="M185.272,79.896v33.134c0,2.695-1.091,5.133-2.855,6.896c-1.814,1.817-4.342,2.918-7.12,2.855  c-5.332-0.12-9.531-4.615-9.531-9.947v-5.009c0-3.969-1.607-7.557-4.209-10.157c-2.601-2.601-6.189-4.209-10.157-4.209  c-6.189,0-12.212,2.077-17.037,5.959c-6.256,5.032-14.21,8.047-22.87,8.047c-8.657,0-16.611-3.015-22.867-8.047  c-0.827-0.667-1.691-1.277-2.584-1.834c-0.01-0.01-0.023-0.017-0.033-0.023c-1.701-1.061-3.508-1.921-5.389-2.578  c-2.888-1.004-5.939-1.525-9.037-1.525c-7.93,0-14.36,6.44-14.36,14.373v5.203c0,2.692-1.091,5.133-2.858,6.896  c-1.764,1.764-4.202,2.855-6.896,2.855c-5.385,0-9.751-4.366-9.751-9.754V79.896c0-29.013,23.516-52.532,52.529-52.532h42.492  C161.752,27.364,185.272,50.883,185.272,79.896z" data-original="#FFE461" class="" data-old_color="#FFE461"/><path style="fill:#E8CA4D;" d="M124.41,27.363c-29.016,0-52.524,23.522-52.524,52.537v13.574c-0.106-0.014-0.197-0.014-0.302-0.014  c-7.937,0-14.363,6.439-14.363,14.376v5.191c0,2.694-1.091,5.139-2.852,6.899c-1.774,1.761-4.205,2.852-6.899,2.852  c-5.387,0-9.751-4.362-9.751-9.751V79.9c0-29.016,23.509-52.537,52.524-52.537C90.243,27.363,124.41,27.363,124.41,27.363z" data-original="#E8CA4D" class=""/><path style="fill:#FF5A5A;" d="M178.503,434.885v65.17c-18.62-5.904-36.321-13.887-52.82-23.667  c-19.404-11.494-37.146-25.475-52.809-41.503H178.503z" data-original="#FF5A5A" class=""/><path style="fill:#279FC9" d="M60.461,302.372v118.857c-5.695-6.719-11.034-13.74-16.008-21.034V286.364  C53.293,286.364,60.461,293.532,60.461,302.372z" data-original="#279FC9" class=""/><path style="fill:#FFFFFF" d="M136.188,161.681c0,2.437-0.357,4.79-1.071,6.997c-1.029,3.403-2.836,6.492-5.211,9.034  c-4.307,4.685-10.505,7.606-17.355,7.606c-6.849,0-13.048-2.92-17.355-7.606c-2.374-2.542-4.181-5.631-5.211-9.034  c-0.715-2.206-1.071-4.559-1.071-6.997H136.188z" data-original="#FFFFFF" class="" data-old_color="#FFFFFF"/><g>
	<path style="fill:#33B08F" d="M151.665,135.96c0-6.613-5.36-11.973-11.973-11.973s-11.973,5.36-11.973,11.973" data-original="#5C5E70" class="" data-old_color="#5C5E70"/>
	<path style="fill:#33B08F" d="M95.272,135.96c0-6.613-5.36-11.973-11.973-11.973s-11.973,5.36-11.973,11.973" data-original="#5C5E70" class="" data-old_color="#5C5E70"/>
</g><polyline style="fill:#279FC9" points="183.8,165.375 215.831,178.606 219.293,169.928 187.875,157.525 " data-original="#279FC9" class=""/><path style="fill:#F9D6B9;" d="M355.344,476.389h31.002c19.404-11.494,37.146-25.475,52.809-41.503  c28.547-29.215,50.155-65.233,62.161-105.399v-52.318H412.51l-45.255,157.717L355.344,476.389z" data-original="#F9D6B9" class=""/><path style="fill:#E5BFA3;" d="M476.999,341.116v44.168c-2.717,4.65-5.59,9.206-8.6,13.667c-2.257,3.354-4.598,6.646-7.011,9.885  h-10.512v-67.72L476.999,341.116L476.999,341.116z" data-original="#E5BFA3" class=""/><path style="fill:#E8CA4D;" d="M501.188,329.852c-1.139,3.793-2.372,7.555-3.678,11.264H359.208v-11.264H501.188z" data-original="#E8CA4D" class=""/><path style="fill:#F4A14E;" d="M479.13,90.874v152.915l-12.08-5.707v23.467H329.238v-17.123l-5.572,2.941V90.874  c0-17.299,5.654-33.297,15.212-46.204c9.571-12.92,23.047-22.763,38.679-27.793c7.511-2.427,15.509-3.728,23.834-3.728h0.014  C444.327,13.149,479.13,47.95,479.13,90.874z" data-original="#F4A14E" class=""/><path style="fill:#FFDE59" d="M416.738,214.383c-0.747-0.036-1.512-0.053-2.277-0.053h24.013c0.765,0,1.53,0.018,2.277,0.053  c33.653,1.192,60.564,28.851,60.564,62.788v52.316H443.04l-9.927-52.316C433.113,243.233,450.391,215.575,416.738,214.383z" data-original="#FFE461" class="" data-old_color="#FFE461"/><path style="fill:#E28D40" d="M399.926,261.548c0.406,1.803,0.637,2.779,0.637,2.779l-48.631-2.779l-22.695-1.302v-15.822  l-5.572,2.941V90.874c0-17.299,5.654-33.297,15.212-46.204c9.571-12.92,23.047-22.763,38.679-27.793  c7.511-2.427,15.509-3.728,23.834-3.728h0.014c0,0-24.606,10.304-26.614,71.475C372.961,140.276,395.778,243.355,399.926,261.548z" data-original="#E28D40" class="" data-old_color="#E28D40"/><path style="fill:#FFDE59" d="M468.4,250.952v147.999c-8.662,12.852-18.463,24.879-29.268,35.934H334.391V250.952  c0-1.902,0.146-3.772,0.428-5.59c2.132-13.96,12.142-25.318,25.36-29.393c0.324-0.104,0.658-0.199,0.993-0.293  c0.794-0.23,1.609-0.428,2.424-0.596c2.393-0.502,4.869-0.752,7.419-0.752h60.761c2.55,0,5.026,0.261,7.419,0.752  c0.815,0.178,1.62,0.366,2.414,0.596C457.062,219.971,468.4,234.14,468.4,250.952z" data-original="#FFE461" class="" data-old_color="#FFE461"/><path style="fill:#E5BFA3;" d="M238.389,32.338l54.322,137.597l22.742-8.977l8.667-3.43L269.815,19.93  c-3.43-8.667-13.241-12.932-21.924-9.501c-1.823,0.726-3.461,1.715-4.851,2.951C237.771,17.922,235.685,25.478,238.389,32.338z" data-original="#E5BFA3" class=""/><path style="fill:#F9D6B9;" d="M247.06,28.904l54.322,137.597l22.742-8.977L270.018,20.423c-2.966-7.478-10.676-11.68-18.309-10.475  C246.442,14.49,244.356,22.044,247.06,28.904z" data-original="#F9D6B9" class=""/><polygon style="fill:#FFDE59" points="360.286,215.676 360.182,215.969 343.191,266.218 337.654,282.592 334.393,274.421   294.604,174.706 292.702,169.931 324.122,157.528 " data-original="#FFE461" class="" data-old_color="#FFE461"/><polyline style="fill:#E8CA4D;" points="328.2,165.375 296.169,178.606 292.706,169.929 324.124,157.526 " data-original="#E8CA4D" class=""/><path style="fill:#2BB0E3" d="M439.132,434.885c-28.776,29.456-64.596,51.994-104.741,64.888v-64.888H439.132z" data-original="#34ABE0" class="" data-old_color="#34ABE0"/><path style="fill:#279FC9" d="M349.469,434.885v59.507c-4.953,1.954-9.979,3.741-15.078,5.381c-0.01,0-0.031,0.01-0.042,0.01  v-64.899L349.469,434.885L349.469,434.885z" data-original="#279FC9" class=""/><path style="fill:#E8CA4D;" d="M439.197,215.081v18.254c0,20.846-16.959,37.804-37.794,37.804c-7.22,0-14.242-2.048-20.302-5.904  c-2.341-1.494-4.504-3.239-6.437-5.162c-7.147-7.178-11.065-16.666-11.065-26.739v-18.254c2.393-0.502,4.869-0.752,7.419-0.752  h60.761C434.328,214.328,436.804,214.59,439.197,215.081z" data-original="#E8CA4D" class=""/><path style="fill:#E5BFA3;" d="M430.054,185.599v47.731c0,15.822-12.813,28.656-28.656,28.656c-5.664,0-10.932-1.637-15.379-4.47  c-1.77-1.128-3.407-2.434-4.89-3.916c-5.179-5.2-8.386-12.369-8.386-20.27v-47.731H430.054z" data-original="#E5BFA3" class=""/><g>
	<path style="fill:#F9D6B9;" d="M430.054,218.04v15.29c0,15.822-12.813,28.656-28.656,28.656c-5.664,0-10.932-1.637-15.379-4.47   v-20.174c0-10.661,8.642-19.303,19.303-19.303h24.732V218.04z" data-original="#F9D6B9" class=""/>
	<path style="fill:#F9D6B9;" d="M459.298,125.322v20.49c0,17.614-6.484,33.568-16.972,45.098   c-10.467,11.551-24.939,18.698-40.937,18.698c-0.907,0-1.793-0.022-2.7-0.089c-30.714-1.527-55.21-29.474-55.21-63.707v-32.02   c1.194-0.22,2.368-0.509,3.474-0.818c6.418-1.726,11.396-4.514,15.224-7.679c2.766-2.302,4.935-4.802,6.66-7.236   c4.514-6.396,5.753-12.392,5.93-13.321c0.022-0.067,0.022-0.089,0.022-0.111c5.178,4.205,11.684,8.586,19.605,12.126   c4.271,1.948,8.94,3.629,14.007,4.935c5.178,1.35,10.799,2.302,16.84,2.7C445.225,105.695,454.806,114.524,459.298,125.322z" data-original="#F9D6B9" class=""/>
</g><g>
	<path style="fill:#E5BFA3;" d="M398.689,209.52c-30.714-1.527-55.21-29.474-55.21-63.707v-30.957   c1.217-0.598,2.39-1.217,3.474-1.881c6.418-1.726,11.396-4.514,15.224-7.679v44.942C362.177,177.147,377.291,200.16,398.689,209.52   z" data-original="#E5BFA3" class=""/>
	<path style="fill:#E5BFA3;" d="M408.404,141.117c0,3.784-2.838,7.168-6.617,7.363c-4.043,0.209-7.389-2.986-7.389-6.983" data-original="#E5BFA3" class=""/>
</g><path style="fill:#FFFFFF" d="M422.617,164.725c0,2.072-0.304,4.073-0.911,5.95c-0.876,2.894-2.412,5.521-4.43,7.683  c-3.662,3.984-8.933,6.468-14.758,6.468c-5.824,0-11.095-2.484-14.758-6.468c-2.019-2.162-3.556-4.788-4.43-7.683  c-0.607-1.876-0.911-3.877-0.911-5.95H422.617z" data-original="#FFFFFF" class="" data-old_color="#FFFFFF"/><path style="fill:#E8CA4D;" d="M472.277,268.771c-2.235,0.213-3.877,2.218-3.877,4.464v19.095c0,9.521-7.719,17.241-17.241,17.241  h-87.836c-9.733,0-17.624-7.891-17.624-17.624v-19.47l-2.508-6.259l-8.37-20.856l-28.463-70.969l-11.755,0.313l39.79,99.715v160.465  h11.306V329.424h122.701v11.692h8.598V273.05C476.999,270.537,474.841,268.526,472.277,268.771z" data-original="#E8CA4D" class=""/><path style="fill:#E5BFA3;" d="M282.34,26.331c0,14.556-11.793,26.349-26.349,26.349c-1.533,0-3.048-0.133-4.505-0.397  c-12.399-2.12-21.826-12.929-21.826-25.952C229.66,11.794,241.453,0,255.991,0c8.537,0,16.128,4.051,20.917,10.354  C280.315,14.784,282.34,20.312,282.34,26.331z" data-original="#E5BFA3" class=""/><path style="fill:#F9D6B9;" d="M282.34,26.331c0,14.556-11.793,26.349-26.349,26.349c-1.533,0-3.048-0.133-4.505-0.397  c-3.407-4.429-5.432-9.976-5.432-15.995c0-14.556,11.793-26.33,26.33-26.33c1.553,0,3.067,0.133,4.524,0.397  C280.315,14.784,282.34,20.312,282.34,26.331z" data-original="#F9D6B9" class=""/><g>
	<path style="fill:#33B08F" d="M441.592,135.96c0-6.613-5.36-11.973-11.973-11.973c-6.613,0-11.973,5.36-11.973,11.973" data-original="#5C5E70" class="" data-old_color="#5C5E70"/>
	<path style="fill:#33B08F" d="M385.198,135.96c0-6.613-5.36-11.973-11.974-11.973c-6.613,0-11.973,5.36-11.973,11.973" data-original="#5C5E70" class="" data-old_color="#5C5E70"/>
</g></g> </svg>
