<?xml version="1.0"?>
<svg xmlns="http://www.w3.org/2000/svg" id="Capa_1" enable-background="new 0 0 511.988 511.988" height="512px" viewBox="0 0 511.988 511.988" width="512px" class=""><g><link xmlns="" type="text/css" id="dark-mode" rel="stylesheet"/><style xmlns="" type="text/css" id="dark-mode-custom-style"/><g id="XMLID_2108_"><g id="XMLID_1673_"><path id="XMLID_1468_" d="m305.993 176.994h102.995l93 93v130h-195.988z" fill="#ffcb7c" data-original="#FFCB7C" class="" style="fill:#FFDE59" data-old_color="#ffcb7c"/><path id="XMLID_1501_" d="m501.988 311.994v-42l-93-93h-46.988v135z" fill="#fff" data-original="#FFF"/><path id="XMLID_1466_" d="m186.373 399.994h119.627v-48h-296v48h69.25z" fill="#79b2ff" data-original="#79B2FF" class="active-path" style="fill:#2BB0E3" data-old_color="#79b2ff"/><path id="XMLID_1465_" d="m10 63.994h296v288h-296z" fill="#91def5" data-original="#91DEF5" class="" style="fill:#33B08F" data-old_color="#91def5"/><g id="XMLID_2959_" fill="#b5bcc9"><circle id="XMLID_1462_" cx="397" cy="399.994" r="48" data-original="#B5BCC9" class=""/><circle id="XMLID_1582_" cx="127.25" cy="399.994" r="48" data-original="#B5BCC9" class=""/></g><path id="XMLID_1469_" d="m479.744 351.994h22.244v-40h-40v22.244c0 9.807 7.95 17.756 17.756 17.756z" fill="#f5737f" data-original="#F5737F" class="" style="fill:#F5737F"/><circle id="XMLID_1451_" cx="158" cy="207.994" fill="#ffcb7c" r="91" data-original="#FFCB7C" class="" style="fill:#FFDE59" data-old_color="#ffcb7c"/></g><g id="XMLID_336_"><path id="XMLID_337_" d="m397.004 389.994c-2.64 0-5.21 1.069-7.07 2.93-1.87 1.86-2.93 4.44-2.93 7.07s1.06 5.21 2.93 7.069c1.86 1.86 4.431 2.931 7.07 2.931 2.63 0 5.21-1.07 7.07-2.931 1.859-1.859 2.93-4.439 2.93-7.069s-1.07-5.21-2.93-7.07c-1.87-1.861-4.44-2.93-7.07-2.93z" data-original="#000000" class="" style="fill:#000000" data-old_color="#000000"/><path id="XMLID_463_" d="m127.254 389.994c-2.64 0-5.21 1.069-7.08 2.93-1.86 1.86-2.92 4.44-2.92 7.07s1.06 5.21 2.92 7.069c1.87 1.86 4.44 2.931 7.08 2.931 2.63 0 5.21-1.07 7.07-2.931 1.859-1.859 2.93-4.439 2.93-7.069s-1.07-5.21-2.93-7.07c-1.86-1.861-4.44-2.93-7.07-2.93z" data-original="#000000" class="" style="fill:#000000" data-old_color="#000000"/><path id="XMLID_487_" d="m509.06 262.923-93-93c-1.876-1.875-4.419-2.929-7.071-2.929h-92.989v-103c0-5.522-4.478-10-10-10h-103.127c-5.522 0-10 4.478-10 10s4.478 10 10 10h93.127v268h-276v-268h92.873c5.522 0 10-4.478 10-10s-4.478-10-10-10h-102.873c-5.522 0-10 4.478-10 10v336c0 5.522 4.478 10 10 10h60.131c4.754 27.23 28.549 48 57.119 48s52.365-20.77 57.119-48h155.512c4.754 27.23 28.549 48 57.119 48s52.365-20.77 57.119-48h47.869c5.522 0 10-4.478 10-10v-130c0-2.652-1.053-5.195-2.928-7.071zm-37.072 59.071h20v20h-12.244c-4.276 0-7.756-3.479-7.756-7.756zm20-20h-67.343l47.6-47.601 19.743 19.743zm-119.988 0v-18.19l64.828-64.828 21.275 21.275-61.742 61.743zm50.685-97.161-50.685 50.686v-68.524h32.846zm-126.685 185.161h-111.631c-1.85-10.595-6.58-20.205-13.357-28h124.988zm-276-28h63.488c-6.778 7.795-11.508 17.405-13.357 28h-50.131zm107.25 76c-20.953 0-38-17.047-38-38s17.047-38 38-38 38 17.047 38 38-17.047 38-38 38zm269.75 0c-20.953 0-38-17.047-38-38s17.047-38 38-38 38 17.047 38 38-17.047 38-38 38zm57.119-48c-4.754-27.23-28.549-48-57.119-48s-52.365 20.77-57.119 48h-23.881v-203h36v125c0 5.522 4.478 10 10 10h89.988v12.244c0 15.305 12.451 27.756 27.756 27.756h12.244v28z" data-original="#000000" class="" style="fill:#000000" data-old_color="#000000"/><path id="XMLID_519_" d="m57 207.994c0 55.691 45.309 101 101 101s101-45.309 101-101-45.309-101-101-101-101 45.309-101 101zm182 0c0 44.663-36.337 81-81 81s-81-36.337-81-81 36.337-81 81-81 81 36.337 81 81z" data-original="#000000" class="" style="fill:#000000" data-old_color="#000000"/><path id="XMLID_520_" d="m142.284 158.556-15.982 46.167c-1.058 3.057-.572 6.437 1.305 9.071 1.876 2.636 4.911 4.2 8.146 4.2h30.198l-11.389 32.896c-1.807 5.219.96 10.914 6.179 12.722 1.083.375 2.187.553 3.272.553 4.143 0 8.018-2.596 9.449-6.731l15.982-46.167c1.058-3.057.572-6.437-1.305-9.071-1.876-2.636-4.911-4.2-8.146-4.2h-30.198l11.389-32.896c1.807-5.219-.96-10.914-6.179-12.722-5.213-1.807-10.914.958-12.721 6.178z" data-original="#000000" class="" style="fill:#000000" data-old_color="#000000"/><path id="XMLID_521_" d="m157.874 73.994c2.63 0 5.21-1.07 7.07-2.931 1.859-1.859 2.93-4.439 2.93-7.069s-1.07-5.21-2.93-7.07-4.44-2.93-7.07-2.93-5.21 1.069-7.07 2.93c-1.859 1.86-2.93 4.44-2.93 7.07s1.07 5.21 2.93 7.069c1.86 1.861 4.44 2.931 7.07 2.931z" data-original="#000000" class="" style="fill:#000000" data-old_color="#000000"/></g></g></g> </svg>
