<?xml version="1.0"?>
<svg xmlns="http://www.w3.org/2000/svg" height="512px" viewBox="0 -38 512.001 512" width="512px" class=""><g><link xmlns="" type="text/css" id="dark-mode" rel="stylesheet"/><style xmlns="" type="text/css" id="dark-mode-custom-style"/><path d="m424.425781 130.472656c-4.304687 0-7.789062-3.480468-7.789062-7.777344v-94.320312c0-7.066406-5.757813-12.8125-12.832031-12.8125h-203.246094c-7.058594 0-12.800782 5.746094-12.800782 12.8125v26.347656c0 4.296875-3.484374 7.78125-7.785156 7.78125-4.300781 0-7.789062-3.484375-7.789062-7.78125v-26.347656c0-15.644531 12.730468-28.375 28.375-28.375h203.246094c15.664062 0 28.40625 12.730469 28.40625 28.375v94.320312c0 4.296876-3.484376 7.777344-7.785157 7.777344zm0 0" fill="#525252" data-original="#525252" class="" data-old_color="#525252" style="fill:#785A5A"/><g fill-rule="evenodd"><path d="m376.269531 201.386719 47.875 17.933593 48.402344-17.933593v-30.527344c0-26.492187-21.667969-48.164063-48.121094-48.164063-26.488281 0-48.15625 21.671876-48.15625 48.164063zm0 0" fill="#ffcc73" data-original="#FFCC73" class="" style="fill:#FFDE59" data-old_color="#ffcc73"/><path d="m472.546875 201.386719h-128.457031v199.066406l83.371094 21.832031 74.230468-21.832031c.847656 0 1.695313.117187 2.511719.320313v-189.078126c0-5.664062-4.640625-10.308593-10.308594-10.308593zm0 0" fill="#e8e8e8" data-original="#E8E8E8" class="" style="fill:#33B08F" data-old_color="#e8e8e8"/><path d="m344.089844 400.453125v-199.066406c0-98.90625-83.109375-148.535157-164.117188-146.664063-77.007812 1.753906-152.144531 50.035156-152.144531 146.664063v199.066406l146.101563 17.773437zm0 0" fill="#ffcc73" data-original="#FFCC73" class="" style="fill:#FFDE59" data-old_color="#ffcc73"/><path d="m64.683594 201.386719c0-90.757813 66.257812-138.863281 138.125-145.847657-7.59375-.730468-15.214844-.992187-22.835938-.816406-77.007812 1.753906-152.144531 50.035156-152.144531 146.664063v199.066406h36.855469zm0 0" fill="#f59556" data-original="#F59556" class="" style="fill:#E2BC24" data-old_color="#f59556"/><path d="m86.234375 249.671875c0 20.125 17.113281 36.453125 38.195313 36.453125 21.113281 0 38.226562-16.328125 38.226562-36.453125 0-6.136719-1.605469-11.890625-4.382812-16.972656l-16.410157-28.421875c-4.144531-6.804688 0 0-8.703125-14.605469-4.230468-6.046875-12.265625-7.007813-17.667968.992187l-8.292969 13.613282-16.585938 28.421875c-2.804687 5.082031-4.378906 10.835937-4.378906 16.972656zm0 0" fill="#55b8e6" data-original="#55B8E6" class="active-path" style="fill:#E4F8FF" data-old_color="#55b8e6"/><path d="m109.566406 248.269531c0-6.105469 1.578125-11.890625 4.378906-16.941406l16.558594-28.453125 5.3125-8.734375c-.699218-1.195313-1.574218-2.683594-2.65625-4.46875-4.234375-6.046875-12.265625-7.007813-17.667968.996094l-8.292969 13.609375-16.585938 28.421875c-2.804687 5.082031-4.378906 10.835937-4.378906 16.972656 0 20.125 17.113281 36.453125 38.195313 36.453125 4.933593 0 9.636718-.875 13.929687-2.511719-16.554687-3.972656-28.792969-18.285156-28.792969-35.34375zm0 0" fill="#6a96d4" data-original="#6A96D4" class=""/><path d="m402.347656 170.859375c0-21.992187 14.890625-40.628906 35.097656-46.355469-4.144531-1.167968-8.523437-1.808594-13.019531-1.808594-26.488281 0-48.15625 21.671876-48.15625 48.164063v30.527344h26.078125zm0 0" fill="#f59556" data-original="#F59556" class="" style="fill:#E2BC24" data-old_color="#f59556"/><path d="m446.617188 333.882812h-40.882813c-4.730469 0-8.617187 3.882813-8.617187 8.617188v57.953125h58.113281v-57.953125c0-4.734375-3.882813-8.617188-8.613281-8.617188zm0 0" fill="#fa6969" data-original="#FA6969" class=""/><path d="m411.777344 400.453125v-57.953125c0-4.734375 3.855468-8.617188 8.613281-8.617188h-14.65625c-4.730469 0-8.617187 3.882813-8.617187 8.617188v57.953125zm0 0" fill="#c92858" data-original="#C92858" class=""/><path d="m365.023438 400.453125v-199.066406h-20.933594v199.066406zm0 0" fill="#ccc" data-original="#CCC" class=""/><path d="m427.460938 249.464844h-34.78125c-5.664063 0-10.308594 4.617187-10.308594 10.28125v20.625c0 5.664062 4.644531 10.308594 10.308594 10.308594h69.558593c5.667969 0 10.308594-4.644532 10.308594-10.308594v-20.625c0-5.664063-4.640625-10.28125-10.308594-10.28125zm0 0" fill="#55b8e6" data-original="#55B8E6" class="active-path" style="fill:#E4F8FF" data-old_color="#55b8e6"/><path d="m399.777344 280.371094v-20.621094c0-5.667969 4.640625-10.285156 10.308594-10.285156h-17.40625c-5.664063 0-10.308594 4.617187-10.308594 10.285156v20.621094c0 5.667968 4.644531 10.308594 10.308594 10.308594h17.40625c-5.664063 0-10.308594-4.640626-10.308594-10.308594zm0 0" fill="#6a96d4" data-original="#6A96D4" class=""/></g><path d="m302.679688 91.457031c-4.300782 0-7.785157 3.484375-7.785157 7.78125v4.195313h-57.433593v-43.308594c0-4.296875-3.484376-7.78125-7.785157-7.78125-4.304687 0-7.789062 3.484375-7.789062 7.78125v340.328125c0 4.296875 3.484375 7.78125 7.789062 7.78125 4.300781 0 7.785157-3.484375 7.785157-7.78125v-31.652344h57.433593v31.652344c0 4.296875 3.484375 7.78125 7.785157 7.78125 4.300781 0 7.789062-3.484375 7.789062-7.78125v-301.214844c0-4.296875-3.488281-7.78125-7.789062-7.78125zm-65.21875 111.902344v-34.414063h57.433593v34.414063zm57.433593 15.5625v34.386719h-57.433593v-34.386719zm-57.433593 49.949219h57.433593v34.417968h-57.433593zm57.433593-149.875v34.386718h-57.433593v-34.386718zm-57.433593 234.242187v-34.386719h57.433593v34.386719zm0 0" fill="#525252" data-original="#525252" class="" data-old_color="#525252" style="fill:#785A5A"/><path d="m344.089844 400.453125h-333.808594c-5.667969 0-10.28125 4.644531-10.28125 10.3125v14.953125c0 5.667969 4.613281 10.28125 10.28125 10.28125h491.410156c5.667969 0 10.308594-4.613281 10.308594-10.28125v-14.957031c0-4.789063-3.328125-8.847657-7.796875-9.988281-.816406-.203126-1.664063-.320313-2.511719-.320313zm0 0" fill="#808080" fill-rule="evenodd" data-original="#808080" class="" style="fill:#808080"/><path d="m36.355469 410.761719c0-5.667969 4.617187-10.3125 10.28125-10.3125h-36.355469c-5.667969 0-10.28125 4.644531-10.28125 10.3125v14.957031c0 5.667969 4.613281 10.28125 10.28125 10.28125h36.355469c-5.664063 0-10.28125-4.613281-10.28125-10.28125zm0 0" fill="#525252" fill-rule="evenodd" data-original="#525252" class="" data-old_color="#525252" style="fill:#785A5A"/></g> </svg>
